<?xml version="1.0" encoding="UTF-8" standalone="no"?>
<svg
   xmlns:dc="http://purl.org/dc/elements/1.1/"
   xmlns:cc="http://creativecommons.org/ns#"
   xmlns:rdf="http://www.w3.org/1999/02/22-rdf-syntax-ns#"
   xmlns:svg="http://www.w3.org/2000/svg"
   xmlns="http://www.w3.org/2000/svg"
   xmlns:sodipodi="http://sodipodi.sourceforge.net/DTD/sodipodi-0.dtd"
   xmlns:inkscape="http://www.inkscape.org/namespaces/inkscape"
   version="1.1"
   id="svg2"
   xml:space="preserve"
   width="266.66666"
   height="266.66666"
   viewBox="0 0 266.66666 266.66666"
   sodipodi:docname="Lightdrinks2.eps"><metadata
     id="metadata8"><rdf:RDF><cc:Work
         rdf:about=""><dc:format>image/svg+xml</dc:format><dc:type
           rdf:resource="http://purl.org/dc/dcmitype/StillImage" /></cc:Work></rdf:RDF></metadata><defs
     id="defs6" /><sodipodi:namedview
     pagecolor="#ffffff"
     bordercolor="#666666"
     borderopacity="1"
     objecttolerance="10"
     gridtolerance="10"
     guidetolerance="10"
     inkscape:pageopacity="0"
     inkscape:pageshadow="2"
     inkscape:window-width="640"
     inkscape:window-height="480"
     id="namedview4" /><g
     id="g10"
     inkscape:groupmode="layer"
     inkscape:label="ink_ext_XXXXXX"
     transform="matrix(1.3333333,0,0,-1.3333333,0,266.66667)"><g
       id="g12"
       transform="scale(0.1)"><path
         d="m 993.457,608.602 c 0,0 -32.812,0 43.763,0 76.57,0 77.94,68.367 77.94,68.367 0,0 0,190.07 0,258.441 0,68.37 -36.93,132.27 -50.6,151.41 -13.67,19.14 -16.41,90.61 -16.41,90.61 v -17.94 h -54.693 -13.973 -54.699 v 17.94 c 0,0 -2.734,-71.47 -16.418,-90.61 -13.668,-19.14 -50.582,-83.04 -50.582,-151.41 0,-68.371 0,-258.441 0,-258.441 0,0 1.367,-68.367 77.938,-68.367 76.577,0 43.761,0 43.761,0"
         style="fill:#cbe553;fill-opacity:1;fill-rule:nonzero;stroke:none"
         id="path14" /><path
         d="m 993.457,608.602 c 0,0 -32.812,0 43.763,0 76.57,0 77.94,68.367 77.94,68.367 0,0 0,190.07 0,258.441 0,68.37 -36.93,132.27 -50.6,151.41 -13.67,19.14 -16.41,90.61 -16.41,90.61 v 64.27 h -54.693 -13.973 -54.699 v -64.27 c 0,0 -2.734,-71.47 -16.418,-90.61 -13.668,-19.14 -50.582,-83.04 -50.582,-151.41 0,-68.371 0,-258.441 0,-258.441 0,0 1.367,-68.367 77.938,-68.367 76.577,0 43.761,0 43.761,0"
         style="fill:none;stroke:#161315;stroke-width:20;stroke-linecap:round;stroke-linejoin:round;stroke-miterlimit:10;stroke-dasharray:none;stroke-opacity:1"
         id="path16" /><path
         d="m 976.934,1241.7 c 0,0 48.986,0 57.866,0 8.87,0 20.71,2.96 20.71,45.87 0,42.9 -22.19,44.37 -71.018,44.37 h 0.684 c -48.828,0 -71.016,-1.47 -71.016,-44.37 0,-42.91 11.836,-45.87 20.711,-45.87 8.879,0 57.863,0 57.863,0"
         style="fill:none;stroke:#161315;stroke-width:20;stroke-linecap:round;stroke-linejoin:round;stroke-miterlimit:10;stroke-dasharray:none;stroke-opacity:1"
         id="path18" /><path
         d="m 1082.67,811.961 c 0,-71.59 -44.12,-129.641 -98.529,-129.641 -54.414,0 -98.516,58.051 -98.516,129.641 0,71.59 44.102,129.629 98.516,129.629 54.409,0 98.529,-58.039 98.529,-129.629"
         style="fill:#ffffff;fill-opacity:1;fill-rule:nonzero;stroke:none"
         id="path20" /><path
         d="m 1082.67,811.961 c 0,-71.59 -44.12,-129.641 -98.529,-129.641 -54.414,0 -98.516,58.051 -98.516,129.641 0,71.59 44.102,129.629 98.516,129.629 54.409,0 98.529,-58.039 98.529,-129.629 z"
         style="fill:none;stroke:#161315;stroke-width:20;stroke-linecap:round;stroke-linejoin:round;stroke-miterlimit:10;stroke-dasharray:none;stroke-opacity:1"
         id="path22" /><path
         d="m 1006.05,839.32 c 0,-8.398 -6.812,-15.211 -15.222,-15.211 -8.394,0 -15.203,6.813 -15.203,15.211 0,8.399 6.809,15.211 15.203,15.211 8.41,0 15.222,-6.812 15.222,-15.211 z"
         style="fill:none;stroke:#161315;stroke-width:15;stroke-linecap:round;stroke-linejoin:round;stroke-miterlimit:10;stroke-dasharray:none;stroke-opacity:1"
         id="path24" /><path
         d="m 1043.57,784.602 c 0,-8.403 -6.8,-15.223 -15.21,-15.223 -8.4,0 -15.21,6.82 -15.21,15.223 0,8.41 6.81,15.207 15.21,15.207 8.41,0 15.21,-6.797 15.21,-15.207 z"
         style="fill:none;stroke:#161315;stroke-width:15;stroke-linecap:round;stroke-linejoin:round;stroke-miterlimit:10;stroke-dasharray:none;stroke-opacity:1"
         id="path26" /><path
         d="M 1029.94,851.82 988.781,772.18"
         style="fill:none;stroke:#161315;stroke-width:15;stroke-linecap:round;stroke-linejoin:round;stroke-miterlimit:10;stroke-dasharray:none;stroke-opacity:1"
         id="path28" /><path
         d="M 966.27,802.648 H 921.086"
         style="fill:none;stroke:#161315;stroke-width:15;stroke-linecap:round;stroke-linejoin:round;stroke-miterlimit:10;stroke-dasharray:none;stroke-opacity:1"
         id="path30" /></g></g></svg>
