<?xml version="1.0" encoding="UTF-8" standalone="no"?>
<svg
   xmlns:dc="http://purl.org/dc/elements/1.1/"
   xmlns:cc="http://creativecommons.org/ns#"
   xmlns:rdf="http://www.w3.org/1999/02/22-rdf-syntax-ns#"
   xmlns:svg="http://www.w3.org/2000/svg"
   xmlns="http://www.w3.org/2000/svg"
   xmlns:sodipodi="http://sodipodi.sourceforge.net/DTD/sodipodi-0.dtd"
   xmlns:inkscape="http://www.inkscape.org/namespaces/inkscape"
   version="1.1"
   id="svg2"
   xml:space="preserve"
   width="266.66666"
   height="266.66666"
   viewBox="0 0 266.66666 266.66666"
   sodipodi:docname="Juice2.eps"><metadata
     id="metadata8"><rdf:RDF><cc:Work
         rdf:about=""><dc:format>image/svg+xml</dc:format><dc:type
           rdf:resource="http://purl.org/dc/dcmitype/StillImage" /></cc:Work></rdf:RDF></metadata><defs
     id="defs6" /><sodipodi:namedview
     pagecolor="#ffffff"
     bordercolor="#666666"
     borderopacity="1"
     objecttolerance="10"
     gridtolerance="10"
     guidetolerance="10"
     inkscape:pageopacity="0"
     inkscape:pageshadow="2"
     inkscape:window-width="640"
     inkscape:window-height="480"
     id="namedview4" /><g
     id="g10"
     inkscape:groupmode="layer"
     inkscape:label="ink_ext_XXXXXX"
     transform="matrix(1.3333333,0,0,-1.3333333,0,266.66667)"><g
       id="g12"
       transform="scale(0.1)"><path
         d="M 1082.35,1117.68 H 877.734 c 0,0 42.508,-352.11 44.485,-362.961 1.969,-10.848 4.929,-102.571 59.168,-102.571 54.243,0 91.733,0 91.733,0 h 5.42 c 0,0 37.48,0 91.72,0 54.25,0 57.2,91.723 59.17,102.571 1.98,10.851 47.33,362.961 47.33,362.961 H 1069.3"
         style="fill:#f68f58;fill-opacity:1;fill-rule:nonzero;stroke:none"
         id="path14" /><path
         d="m 1379.49,1291.37 c -13.17,16.19 -32.52,27.37 -54.93,29.68 l -8.37,-81.15 z"
         style="fill:none;stroke:#161315;stroke-width:20;stroke-linecap:round;stroke-linejoin:round;stroke-miterlimit:10;stroke-dasharray:none;stroke-opacity:1"
         id="path16" /><path
         d="m 1289.87,1242.61 8.37,81.15 c -22.41,2.31 -43.63,-4.68 -59.83,-17.85 l 51.46,-63.3 z"
         style="fill:none;stroke:#161315;stroke-width:20;stroke-linecap:round;stroke-linejoin:round;stroke-miterlimit:10;stroke-dasharray:none;stroke-opacity:1"
         id="path18" /><path
         d="m 1331.23,1216.72 81.15,-8.37 c 2.32,22.41 -4.68,43.63 -17.85,59.83 l -63.3,-51.46 z"
         style="fill:none;stroke:#161315;stroke-width:20;stroke-linecap:round;stroke-linejoin:round;stroke-miterlimit:10;stroke-dasharray:none;stroke-opacity:1"
         id="path20" /><path
         d="m 1220.04,1286.17 c -16.2,-13.17 -27.37,-32.52 -29.69,-54.93 l 81.15,-8.37 z"
         style="fill:none;stroke:#161315;stroke-width:20;stroke-linecap:round;stroke-linejoin:round;stroke-miterlimit:10;stroke-dasharray:none;stroke-opacity:1"
         id="path22" /><path
         d="m 1409.63,1181.63 -81.15,8.37 v 0 l 51.46,-63.3 c 16.2,13.18 27.37,32.52 29.69,54.93 z"
         style="fill:none;stroke:#161315;stroke-width:20;stroke-linecap:round;stroke-linejoin:round;stroke-miterlimit:10;stroke-dasharray:none;stroke-opacity:1"
         id="path24" /><path
         d="m 1300.86,1091.13 c 22.4,-2.31 43.63,4.68 59.83,17.85 l -51.46,63.29 z"
         style="fill:none;stroke:#161315;stroke-width:20;stroke-linecap:round;stroke-linejoin:round;stroke-miterlimit:10;stroke-dasharray:none;stroke-opacity:1"
         id="path26" /><path
         d="m 1315.59,1357.73 c -83.03,8.57 -157.29,-51.81 -165.84,-134.84 -0.44,-4.28 -0.59,-8.53 -0.68,-12.77 h 140.07 c 0,0 -8.2,-67.73 -18.32,-150.95 4.52,-0.89 9.1,-1.64 13.77,-2.13 83.04,-8.56 157.28,51.82 165.85,134.85 8.55,83.03 -51.82,157.28 -134.85,165.84 z"
         style="fill:none;stroke:#161315;stroke-width:20;stroke-linecap:round;stroke-linejoin:round;stroke-miterlimit:10;stroke-dasharray:none;stroke-opacity:1"
         id="path28" /><path
         d="M 1083.77,1207.55 H 867.813 c 0,0 53.847,-444.581 55.82,-455.429 1.972,-10.851 4.93,-102.57 59.18,-102.57 54.237,0 91.717,0 91.717,0 h 5.43 c 0,0 37.47,0 91.72,0 54.25,0 57.21,91.719 59.18,102.57 1.97,10.848 55.82,455.429 55.82,455.429 h -215.97"
         style="fill:none;stroke:#161315;stroke-width:20;stroke-linecap:round;stroke-linejoin:round;stroke-miterlimit:10;stroke-dasharray:none;stroke-opacity:1"
         id="path30" /></g></g></svg>
