<?xml version="1.0" encoding="UTF-8" standalone="no"?>
<svg
   xmlns:dc="http://purl.org/dc/elements/1.1/"
   xmlns:cc="http://creativecommons.org/ns#"
   xmlns:rdf="http://www.w3.org/1999/02/22-rdf-syntax-ns#"
   xmlns:svg="http://www.w3.org/2000/svg"
   xmlns="http://www.w3.org/2000/svg"
   xmlns:sodipodi="http://sodipodi.sourceforge.net/DTD/sodipodi-0.dtd"
   xmlns:inkscape="http://www.inkscape.org/namespaces/inkscape"
   version="1.1"
   id="svg2"
   xml:space="preserve"
   width="266.66666"
   height="266.66666"
   viewBox="0 0 266.66666 266.66666"
   sodipodi:docname="Juice1.eps"><metadata
     id="metadata8"><rdf:RDF><cc:Work
         rdf:about=""><dc:format>image/svg+xml</dc:format><dc:type
           rdf:resource="http://purl.org/dc/dcmitype/StillImage" /></cc:Work></rdf:RDF></metadata><defs
     id="defs6" /><sodipodi:namedview
     pagecolor="#ffffff"
     bordercolor="#666666"
     borderopacity="1"
     objecttolerance="10"
     gridtolerance="10"
     guidetolerance="10"
     inkscape:pageopacity="0"
     inkscape:pageshadow="2"
     inkscape:window-width="640"
     inkscape:window-height="480"
     id="namedview4" /><g
     id="g10"
     inkscape:groupmode="layer"
     inkscape:label="ink_ext_XXXXXX"
     transform="matrix(1.3333333,0,0,-1.3333333,0,266.66667)"><g
       id="g12"
       transform="scale(0.1)"><path
         d="m 1313.4,1191.89 c -8.57,-83.03 -82.81,-143.41 -165.84,-134.85 -83.04,8.57 -143.41,82.82 -134.85,165.85 8.56,83.03 82.81,143.41 165.84,134.84 83.03,-8.56 143.41,-82.81 134.85,-165.84 z"
         style="fill:none;stroke:#161315;stroke-width:20;stroke-linecap:round;stroke-linejoin:round;stroke-miterlimit:10;stroke-dasharray:none;stroke-opacity:1"
         id="path14" /><path
         d="m 1242.45,1291.37 c -13.16,16.19 -32.52,27.37 -54.92,29.68 l -8.37,-81.15 z"
         style="fill:none;stroke:#161315;stroke-width:20;stroke-linecap:round;stroke-linejoin:round;stroke-miterlimit:10;stroke-dasharray:none;stroke-opacity:1"
         id="path16" /><path
         d="m 1152.83,1242.61 8.37,81.15 c -22.41,2.31 -43.63,-4.68 -59.83,-17.85 l 51.46,-63.3 z"
         style="fill:none;stroke:#161315;stroke-width:20;stroke-linecap:round;stroke-linejoin:round;stroke-miterlimit:10;stroke-dasharray:none;stroke-opacity:1"
         id="path18" /><path
         d="m 1194.2,1216.72 81.15,-8.37 c 2.31,22.41 -4.69,43.63 -17.86,59.83 l -63.29,-51.46 z"
         style="fill:none;stroke:#161315;stroke-width:20;stroke-linecap:round;stroke-linejoin:round;stroke-miterlimit:10;stroke-dasharray:none;stroke-opacity:1"
         id="path20" /><path
         d="m 1083,1286.17 c -16.19,-13.17 -27.37,-32.52 -29.68,-54.93 l 81.15,-8.37 z"
         style="fill:none;stroke:#161315;stroke-width:20;stroke-linecap:round;stroke-linejoin:round;stroke-miterlimit:10;stroke-dasharray:none;stroke-opacity:1"
         id="path22" /><path
         d="m 1272.59,1181.63 -81.14,8.37 v 0 l 51.46,-63.3 c 16.2,13.18 27.37,32.52 29.68,54.93 z"
         style="fill:none;stroke:#161315;stroke-width:20;stroke-linecap:round;stroke-linejoin:round;stroke-miterlimit:10;stroke-dasharray:none;stroke-opacity:1"
         id="path24" /><path
         d="m 1163.82,1091.13 c 22.41,-2.31 43.63,4.68 59.83,17.85 l -51.46,63.29 z"
         style="fill:none;stroke:#161315;stroke-width:20;stroke-linecap:round;stroke-linejoin:round;stroke-miterlimit:10;stroke-dasharray:none;stroke-opacity:1"
         id="path26" /><path
         d="m 1050.57,1204.52 c -2.32,-22.41 4.67,-43.63 17.85,-59.83 l 63.29,51.46 z"
         style="fill:none;stroke:#161315;stroke-width:20;stroke-linecap:round;stroke-linejoin:round;stroke-miterlimit:10;stroke-dasharray:none;stroke-opacity:1"
         id="path28" /><path
         d="m 1145.87,1174.99 -63.3,-51.47 c 13.17,-16.2 32.52,-27.37 54.93,-29.67 l 8.37,81.14 z"
         style="fill:none;stroke:#161315;stroke-width:20;stroke-linecap:round;stroke-linejoin:round;stroke-miterlimit:10;stroke-dasharray:none;stroke-opacity:1"
         id="path30" /><path
         d="M 949.203,1210.12 H 733.242 c 0,0 53.848,-444.569 55.821,-455.421 1.972,-10.847 4.929,-102.578 59.175,-102.578 54.246,0 91.723,0 91.723,0 h 5.426 c 0,0 37.48,0 91.723,0 54.25,0 57.21,91.731 59.18,102.578 1.97,10.852 55.82,455.421 55.82,455.421 H 936.148"
         style="fill:#ffffff;fill-opacity:1;fill-rule:nonzero;stroke:none"
         id="path32" /><path
         d="M 949.203,1210.12 H 733.242 c 0,0 53.848,-444.569 55.821,-455.421 1.972,-10.847 4.929,-102.578 59.175,-102.578 54.246,0 91.723,0 91.723,0 h 5.426 c 0,0 37.48,0 91.723,0 54.25,0 57.21,91.731 59.18,102.578 1.97,10.852 55.82,455.421 55.82,455.421 H 936.148"
         style="fill:none;stroke:#161315;stroke-width:20;stroke-linecap:round;stroke-linejoin:round;stroke-miterlimit:10;stroke-dasharray:none;stroke-opacity:1"
         id="path34" /></g></g></svg>
