<?xml version="1.0" encoding="UTF-8" standalone="no"?>
<svg
   xmlns:dc="http://purl.org/dc/elements/1.1/"
   xmlns:cc="http://creativecommons.org/ns#"
   xmlns:rdf="http://www.w3.org/1999/02/22-rdf-syntax-ns#"
   xmlns:svg="http://www.w3.org/2000/svg"
   xmlns="http://www.w3.org/2000/svg"
   xmlns:sodipodi="http://sodipodi.sourceforge.net/DTD/sodipodi-0.dtd"
   xmlns:inkscape="http://www.inkscape.org/namespaces/inkscape"
   version="1.1"
   id="svg2"
   xml:space="preserve"
   width="266.66666"
   height="266.66666"
   viewBox="0 0 266.66666 266.66666"
   sodipodi:docname="Spritzer1.eps"><metadata
     id="metadata8"><rdf:RDF><cc:Work
         rdf:about=""><dc:format>image/svg+xml</dc:format><dc:type
           rdf:resource="http://purl.org/dc/dcmitype/StillImage" /></cc:Work></rdf:RDF></metadata><defs
     id="defs6" /><sodipodi:namedview
     pagecolor="#ffffff"
     bordercolor="#666666"
     borderopacity="1"
     objecttolerance="10"
     gridtolerance="10"
     guidetolerance="10"
     inkscape:pageopacity="0"
     inkscape:pageshadow="2"
     inkscape:window-width="640"
     inkscape:window-height="480"
     id="namedview4" /><g
     id="g10"
     inkscape:groupmode="layer"
     inkscape:label="ink_ext_XXXXXX"
     transform="matrix(1.3333333,0,0,-1.3333333,0,266.66667)"><g
       id="g12"
       transform="scale(0.1)"><path
         d="M 1032.92,1154.2 H 816.965 c 0,0 53.844,-444.579 55.816,-455.43 1.977,-10.848 4.934,-102.571 59.176,-102.571 54.25,0 91.723,0 91.723,0 h 5.43 c 0,0 37.48,0 91.72,0 54.24,0 57.2,91.723 59.17,102.571 1.98,10.851 55.83,455.43 55.83,455.43 h -215.96"
         style="fill:none;stroke:#161315;stroke-width:20;stroke-linecap:round;stroke-linejoin:round;stroke-miterlimit:10;stroke-dasharray:none;stroke-opacity:1"
         id="path14" /><path
         d="m 1079.43,722.148 c 0,-7.109 -5.76,-12.867 -12.86,-12.867 -7.11,0 -12.87,5.758 -12.87,12.867 0,7.102 5.76,12.864 12.87,12.864 7.1,0 12.86,-5.762 12.86,-12.864"
         style="fill:#161315;fill-opacity:1;fill-rule:nonzero;stroke:none"
         id="path16" /><path
         d="m 1010.78,687.82 c 0,-7.109 -5.76,-12.859 -12.866,-12.859 -7.105,0 -12.859,5.75 -12.859,12.859 0,7.102 5.754,12.86 12.859,12.86 7.106,0 12.866,-5.758 12.866,-12.86"
         style="fill:#161315;fill-opacity:1;fill-rule:nonzero;stroke:none"
         id="path18" /><path
         d="m 914.672,1005.78 c 0,-7.1 -5.762,-12.858 -12.863,-12.858 -7.106,0 -12.864,5.758 -12.864,12.858 0,7.11 5.758,12.86 12.864,12.86 7.101,0 12.863,-5.75 12.863,-12.86"
         style="fill:#161315;fill-opacity:1;fill-rule:nonzero;stroke:none"
         id="path20" /><path
         d="m 914.672,828.551 c 0,-7.102 -5.762,-12.86 -12.863,-12.86 -7.106,0 -12.864,5.758 -12.864,12.86 0,7.097 5.758,12.871 12.864,12.871 7.101,0 12.863,-5.774 12.863,-12.871"
         style="fill:#161315;fill-opacity:1;fill-rule:nonzero;stroke:none"
         id="path22" /><path
         d="m 983.32,971.461 c 0,-7.102 -5.757,-12.871 -12.859,-12.871 -7.106,0 -12.867,5.769 -12.867,12.871 0,7.098 5.761,12.867 12.867,12.867 7.102,0 12.859,-5.769 12.859,-12.867"
         style="fill:#161315;fill-opacity:1;fill-rule:nonzero;stroke:none"
         id="path24" /><path
         d="m 1154.95,971.461 c 0,-7.102 -5.77,-12.871 -12.87,-12.871 -7.1,0 -12.86,5.769 -12.86,12.871 0,7.098 5.76,12.867 12.86,12.867 7.1,0 12.87,-5.769 12.87,-12.867"
         style="fill:#161315;fill-opacity:1;fill-rule:nonzero;stroke:none"
         id="path26" /><path
         d="m 1193.17,930.129 c 0,-7.109 -5.76,-12.859 -12.86,-12.859 -7.11,0 -12.87,5.75 -12.87,12.859 0,7.101 5.76,12.859 12.87,12.859 7.1,0 12.86,-5.758 12.86,-12.859"
         style="fill:#161315;fill-opacity:1;fill-rule:nonzero;stroke:none"
         id="path28" /><path
         d="m 1024.51,965.852 c 0,-7.102 -5.76,-12.864 -12.86,-12.864 -7.11,0 -12.865,5.762 -12.865,12.864 0,7.109 5.755,12.867 12.865,12.867 7.1,0 12.86,-5.758 12.86,-12.867"
         style="fill:#161315;fill-opacity:1;fill-rule:nonzero;stroke:none"
         id="path30" /><path
         d="m 885.141,1069.05 c 0,-7.11 -5.762,-12.87 -12.868,-12.87 -7.101,0 -12.863,5.76 -12.863,12.87 0,7.1 5.762,12.86 12.863,12.86 7.106,0 12.868,-5.76 12.868,-12.86"
         style="fill:#161315;fill-opacity:1;fill-rule:nonzero;stroke:none"
         id="path32" /><path
         d="m 1094.74,1043.74 c 0,-7.11 -5.76,-12.87 -12.86,-12.87 -7.1,0 -12.87,5.76 -12.87,12.87 0,7.1 5.77,12.86 12.87,12.86 7.1,0 12.86,-5.76 12.86,-12.86"
         style="fill:#161315;fill-opacity:1;fill-rule:nonzero;stroke:none"
         id="path34" /><path
         d="m 1049.18,1094.36 c 0,-7.1 -5.76,-12.86 -12.87,-12.86 -7.1,0 -12.86,5.76 -12.86,12.86 0,7.1 5.76,12.87 12.86,12.87 7.11,0 12.87,-5.77 12.87,-12.87"
         style="fill:#161315;fill-opacity:1;fill-rule:nonzero;stroke:none"
         id="path36" /><path
         d="m 1178.98,1059.57 c 0,-7.1 -5.76,-12.86 -12.86,-12.86 -7.11,0 -12.86,5.76 -12.86,12.86 0,7.11 5.75,12.86 12.86,12.86 7.1,0 12.86,-5.75 12.86,-12.86"
         style="fill:#161315;fill-opacity:1;fill-rule:nonzero;stroke:none"
         id="path38" /><path
         d="m 1061.89,856.828 c 0,-7.098 -5.76,-12.867 -12.86,-12.867 -7.11,0 -12.87,5.769 -12.87,12.867 0,7.113 5.76,12.871 12.87,12.871 7.1,0 12.86,-5.758 12.86,-12.871"
         style="fill:#161315;fill-opacity:1;fill-rule:nonzero;stroke:none"
         id="path40" /><path
         d="m 914.301,743.09 c 0,-7.102 -5.754,-12.871 -12.86,-12.871 -7.105,0 -12.867,5.769 -12.867,12.871 0,7.109 5.762,12.871 12.867,12.871 7.106,0 12.86,-5.762 12.86,-12.871"
         style="fill:#161315;fill-opacity:1;fill-rule:nonzero;stroke:none"
         id="path42" /><path
         d="m 1001.67,787.25 c 0,-7.109 -5.756,-12.871 -12.861,-12.871 -7.106,0 -12.868,5.762 -12.868,12.871 0,7.102 5.762,12.859 12.868,12.859 7.105,0 12.861,-5.757 12.861,-12.859"
         style="fill:#161315;fill-opacity:1;fill-rule:nonzero;stroke:none"
         id="path44" /><path
         d="m 1145.71,826.031 c 0,-7.101 -5.76,-12.871 -12.86,-12.871 -7.11,0 -12.87,5.77 -12.87,12.871 0,7.098 5.76,12.867 12.87,12.867 7.1,0 12.86,-5.769 12.86,-12.867"
         style="fill:#161315;fill-opacity:1;fill-rule:nonzero;stroke:none"
         id="path46" /><path
         d="m 963.191,930.129 c 0,-7.109 -5.753,-12.859 -12.863,-12.859 -7.105,0 -12.863,5.75 -12.863,12.859 0,7.101 5.758,12.859 12.863,12.859 7.11,0 12.863,-5.758 12.863,-12.859"
         style="fill:#161315;fill-opacity:1;fill-rule:nonzero;stroke:none"
         id="path48" /></g></g></svg>
