<?xml version="1.0" encoding="UTF-8" standalone="no"?>
<svg
   xmlns:dc="http://purl.org/dc/elements/1.1/"
   xmlns:cc="http://creativecommons.org/ns#"
   xmlns:rdf="http://www.w3.org/1999/02/22-rdf-syntax-ns#"
   xmlns:svg="http://www.w3.org/2000/svg"
   xmlns="http://www.w3.org/2000/svg"
   xmlns:sodipodi="http://sodipodi.sourceforge.net/DTD/sodipodi-0.dtd"
   xmlns:inkscape="http://www.inkscape.org/namespaces/inkscape"
   version="1.1"
   id="svg2"
   xml:space="preserve"
   width="266.66666"
   height="266.66666"
   viewBox="0 0 266.66666 266.66666"
   sodipodi:docname="Lemonade1.eps"><metadata
     id="metadata8"><rdf:RDF><cc:Work
         rdf:about=""><dc:format>image/svg+xml</dc:format><dc:type
           rdf:resource="http://purl.org/dc/dcmitype/StillImage" /></cc:Work></rdf:RDF></metadata><defs
     id="defs6" /><sodipodi:namedview
     pagecolor="#ffffff"
     bordercolor="#666666"
     borderopacity="1"
     objecttolerance="10"
     gridtolerance="10"
     guidetolerance="10"
     inkscape:pageopacity="0"
     inkscape:pageshadow="2"
     inkscape:window-width="640"
     inkscape:window-height="480"
     id="namedview4" /><g
     id="g10"
     inkscape:groupmode="layer"
     inkscape:label="ink_ext_XXXXXX"
     transform="matrix(1.3333333,0,0,-1.3333333,0,266.66667)"><g
       id="g12"
       transform="scale(0.1)"><path
         d="m 1088.52,1221.37 c 0,0 54.35,150.66 63.08,174.23 12.66,34.1 31.57,58.06 74.61,32.49 38.5,-22.89 140.78,-89.05 140.78,-89.05 l -21.23,-32.89 c 0,0 -129.18,83.43 -136.39,87.03 -7.22,3.62 -15.65,10.84 -22.87,-9.62 -7.22,-20.45 -57.08,-162.19 -57.08,-162.19 z"
         style="fill:none;stroke:#161315;stroke-width:20;stroke-linecap:round;stroke-linejoin:round;stroke-miterlimit:10;stroke-dasharray:none;stroke-opacity:1"
         id="path14" /><path
         d="M 996.938,1223.36 H 780.98 c 0,0 53.848,-444.579 55.817,-455.43 1.973,-10.852 4.933,-102.571 59.18,-102.571 54.242,0 91.722,0 91.722,0 h 5.426 c 0,0 37.485,0 91.715,0 54.25,0 57.21,91.719 59.18,102.571 1.98,10.851 55.82,455.43 55.82,455.43 H 983.883"
         style="fill:#ffffff;fill-opacity:1;fill-rule:nonzero;stroke:none"
         id="path16" /><path
         d="M 996.938,1223.36 H 780.98 c 0,0 53.848,-444.579 55.817,-455.43 1.973,-10.852 4.933,-102.571 59.18,-102.571 54.242,0 91.722,0 91.722,0 h 5.426 c 0,0 37.485,0 91.715,0 54.25,0 57.21,91.719 59.18,102.571 1.98,10.851 55.82,455.43 55.82,455.43 H 983.883"
         style="fill:none;stroke:#161315;stroke-width:20;stroke-linecap:round;stroke-linejoin:round;stroke-miterlimit:10;stroke-dasharray:none;stroke-opacity:1"
         id="path18" /></g></g></svg>
