<?xml version="1.0" encoding="UTF-8" standalone="no"?>
<svg
   xmlns:dc="http://purl.org/dc/elements/1.1/"
   xmlns:cc="http://creativecommons.org/ns#"
   xmlns:rdf="http://www.w3.org/1999/02/22-rdf-syntax-ns#"
   xmlns:svg="http://www.w3.org/2000/svg"
   xmlns="http://www.w3.org/2000/svg"
   xmlns:sodipodi="http://sodipodi.sourceforge.net/DTD/sodipodi-0.dtd"
   xmlns:inkscape="http://www.inkscape.org/namespaces/inkscape"
   version="1.1"
   id="svg2"
   xml:space="preserve"
   width="266.66666"
   height="266.66666"
   viewBox="0 0 266.66666 266.66666"
   sodipodi:docname="Coffee2.eps"><metadata
     id="metadata8"><rdf:RDF><cc:Work
         rdf:about=""><dc:format>image/svg+xml</dc:format><dc:type
           rdf:resource="http://purl.org/dc/dcmitype/StillImage" /></cc:Work></rdf:RDF></metadata><defs
     id="defs6" /><sodipodi:namedview
     pagecolor="#ffffff"
     bordercolor="#666666"
     borderopacity="1"
     objecttolerance="10"
     gridtolerance="10"
     guidetolerance="10"
     inkscape:pageopacity="0"
     inkscape:pageshadow="2"
     inkscape:window-width="640"
     inkscape:window-height="480"
     id="namedview4" /><g
     id="g10"
     inkscape:groupmode="layer"
     inkscape:label="ink_ext_XXXXXX"
     transform="matrix(1.3333333,0,0,-1.3333333,0,266.66667)"><g
       id="g12"
       transform="scale(0.1)"><path
         d="m 1018.97,900.238 c 0,0 141.81,24.41 241.01,-30.5 99.2,-54.918 -65.04,-76.879 -65.04,-76.879 H 1018.97 843.008 c 0,0 -164.238,21.961 -65.039,76.879 99.199,54.91 241.001,30.5 241.001,30.5 z"
         style="fill:none;stroke:#161315;stroke-width:20;stroke-linecap:round;stroke-linejoin:round;stroke-miterlimit:10;stroke-dasharray:none;stroke-opacity:1"
         id="path14" /><path
         d="m 1185.22,792.859 c 0,-53.16 -166.25,-43.281 -166.25,-43.281 0,0 -166.236,-9.879 -166.236,43.281"
         style="fill:none;stroke:#161315;stroke-width:20;stroke-linecap:round;stroke-linejoin:round;stroke-miterlimit:10;stroke-dasharray:none;stroke-opacity:1"
         id="path16" /><path
         d="m 1254.97,1055.24 c 0,0 53.15,15.65 48.76,-21.89 -4.37,-37.53 -76.26,-60.08 -76.26,-60.08"
         style="fill:none;stroke:#161315;stroke-width:20;stroke-linecap:round;stroke-linejoin:round;stroke-miterlimit:10;stroke-dasharray:none;stroke-opacity:1"
         id="path18" /><path
         d="m 1259.9,1106.56 c 0,0 84.49,35.02 93.88,-60.69 9.38,-95.722 -163.87,-129.538 -163.87,-129.538"
         style="fill:none;stroke:#161315;stroke-width:20;stroke-linecap:round;stroke-linejoin:round;stroke-miterlimit:10;stroke-dasharray:none;stroke-opacity:1"
         id="path20" /><path
         d="m 926.238,1222.82 c 0,0 44.094,10.29 44.094,45.57 0,35.27 -69.082,30.86 -69.082,69.08 0,38.21 63.934,26.46 63.934,63.94"
         style="fill:none;stroke:#161315;stroke-width:20;stroke-linecap:round;stroke-linejoin:round;stroke-miterlimit:10;stroke-dasharray:none;stroke-opacity:1"
         id="path22" /><path
         d="m 1012.32,1222.82 c 0,0 44.11,10.29 44.11,45.57 0,35.27 -69.086,30.86 -69.086,69.08 0,38.21 63.936,26.46 63.936,63.94"
         style="fill:none;stroke:#161315;stroke-width:20;stroke-linecap:round;stroke-linejoin:round;stroke-miterlimit:10;stroke-dasharray:none;stroke-opacity:1"
         id="path24" /><path
         d="m 1098.42,1222.82 c 0,0 44.09,10.29 44.09,45.57 0,35.27 -69.08,30.86 -69.08,69.08 0,38.21 63.94,26.46 63.94,63.94"
         style="fill:none;stroke:#161315;stroke-width:20;stroke-linecap:round;stroke-linejoin:round;stroke-miterlimit:10;stroke-dasharray:none;stroke-opacity:1"
         id="path26" /><path
         d="m 1018.97,841.609 c 189.98,0 241.01,185.711 241.01,260.851 0,68.42 21.27,-19.82 0,-19.82 -21.27,0 -241.01,0 -241.01,0 0,0 -219.732,0 -241.001,0 -21.27,0 0,88.24 0,19.82 0,-75.14 51.035,-260.851 241.001,-260.851"
         style="fill:#241a18;fill-opacity:1;fill-rule:nonzero;stroke:none"
         id="path28" /><path
         d="m 1018.97,841.609 c 189.98,0 241.01,185.711 241.01,260.851 0,68.42 -46.79,59.54 -68.05,59.54 -21.27,0 -172.96,0 -172.96,0 0,0 -151.685,0 -172.954,0 -21.258,0 -68.047,8.88 -68.047,-59.54 0,-75.14 51.035,-260.851 241.001,-260.851 z"
         style="fill:none;stroke:#161315;stroke-width:20;stroke-linecap:round;stroke-linejoin:round;stroke-miterlimit:10;stroke-dasharray:none;stroke-opacity:1"
         id="path30" /></g></g></svg>
