<?xml version="1.0" encoding="UTF-8" standalone="no"?>
<svg
   xmlns:dc="http://purl.org/dc/elements/1.1/"
   xmlns:cc="http://creativecommons.org/ns#"
   xmlns:rdf="http://www.w3.org/1999/02/22-rdf-syntax-ns#"
   xmlns:svg="http://www.w3.org/2000/svg"
   xmlns="http://www.w3.org/2000/svg"
   xmlns:sodipodi="http://sodipodi.sourceforge.net/DTD/sodipodi-0.dtd"
   xmlns:inkscape="http://www.inkscape.org/namespaces/inkscape"
   version="1.1"
   id="svg2"
   xml:space="preserve"
   width="266.66666"
   height="266.66666"
   viewBox="0 0 266.66666 266.66666"
   sodipodi:docname="Spritzer2.eps"><metadata
     id="metadata8"><rdf:RDF><cc:Work
         rdf:about=""><dc:format>image/svg+xml</dc:format><dc:type
           rdf:resource="http://purl.org/dc/dcmitype/StillImage" /></cc:Work></rdf:RDF></metadata><defs
     id="defs6" /><sodipodi:namedview
     pagecolor="#ffffff"
     bordercolor="#666666"
     borderopacity="1"
     objecttolerance="10"
     gridtolerance="10"
     guidetolerance="10"
     inkscape:pageopacity="0"
     inkscape:pageshadow="2"
     inkscape:window-width="640"
     inkscape:window-height="480"
     id="namedview4" /><g
     id="g10"
     inkscape:groupmode="layer"
     inkscape:label="ink_ext_XXXXXX"
     transform="matrix(1.3333333,0,0,-1.3333333,0,266.66667)"><g
       id="g12"
       transform="scale(0.1)"><path
         d="M 1009.96,1063.15 H 805.344 c 0,0 42.508,-352.111 44.48,-362.951 1.973,-10.847 4.934,-102.57 59.168,-102.57 54.25,0 91.728,0 91.728,0 h 5.42 c 0,0 37.48,0 91.73,0 54.24,0 57.2,91.723 59.17,102.57 1.97,10.84 47.32,362.951 47.32,362.951 H 996.902"
         style="fill:#e8d7a4;fill-opacity:1;fill-rule:nonzero;stroke:none"
         id="path14" /><path
         d="M 1009.96,1154.2 H 794.004 c 0,0 53.848,-444.579 55.82,-455.43 1.973,-10.848 4.934,-102.571 59.168,-102.571 54.25,0 91.728,0 91.728,0 h 5.42 c 0,0 37.48,0 91.73,0 54.24,0 57.2,91.723 59.17,102.571 1.97,10.851 55.82,455.43 55.82,455.43 H 996.902"
         style="fill:none;stroke:#161315;stroke-width:20;stroke-linecap:round;stroke-linejoin:round;stroke-miterlimit:10;stroke-dasharray:none;stroke-opacity:1"
         id="path16" /><path
         d="m 1056.46,722.148 c 0,-7.109 -5.75,-12.867 -12.86,-12.867 -7.11,0 -12.86,5.758 -12.86,12.867 0,7.102 5.75,12.864 12.86,12.864 7.11,0 12.86,-5.762 12.86,-12.864"
         style="fill:#161315;fill-opacity:1;fill-rule:nonzero;stroke:none"
         id="path18" /><path
         d="m 987.82,687.82 c 0,-7.109 -5.761,-12.859 -12.871,-12.859 -7.097,0 -12.859,5.75 -12.859,12.859 0,7.102 5.762,12.86 12.859,12.86 7.11,0 12.871,-5.758 12.871,-12.86"
         style="fill:#161315;fill-opacity:1;fill-rule:nonzero;stroke:none"
         id="path20" /><path
         d="m 976.746,1204.21 c 0,-7.11 -5.762,-12.86 -12.859,-12.86 -7.11,0 -12.871,5.75 -12.871,12.86 0,7.1 5.761,12.86 12.871,12.86 7.097,0 12.859,-5.76 12.859,-12.86"
         style="fill:#161315;fill-opacity:1;fill-rule:nonzero;stroke:none"
         id="path22" /><path
         d="m 900.215,828.551 c 0,-7.102 -5.762,-12.86 -12.871,-12.86 -7.102,0 -12.864,5.758 -12.864,12.86 0,7.097 5.762,12.871 12.864,12.871 7.109,0 12.871,-5.774 12.871,-12.871"
         style="fill:#161315;fill-opacity:1;fill-rule:nonzero;stroke:none"
         id="path24" /><path
         d="m 960.359,971.461 c 0,-7.102 -5.761,-12.871 -12.871,-12.871 -7.097,0 -12.859,5.769 -12.859,12.871 0,7.098 5.762,12.867 12.859,12.867 7.11,0 12.871,-5.769 12.871,-12.867"
         style="fill:#161315;fill-opacity:1;fill-rule:nonzero;stroke:none"
         id="path26" /><path
         d="m 1131.98,971.461 c 0,-7.102 -5.76,-12.871 -12.86,-12.871 -7.11,0 -12.87,5.769 -12.87,12.871 0,7.098 5.76,12.867 12.87,12.867 7.1,0 12.86,-5.769 12.86,-12.867"
         style="fill:#161315;fill-opacity:1;fill-rule:nonzero;stroke:none"
         id="path28" /><path
         d="m 1124.85,901.781 c 0,-7.101 -5.76,-12.859 -12.86,-12.859 -7.11,0 -12.87,5.758 -12.87,12.859 0,7.11 5.76,12.867 12.87,12.867 7.1,0 12.86,-5.757 12.86,-12.867"
         style="fill:#161315;fill-opacity:1;fill-rule:nonzero;stroke:none"
         id="path30" /><path
         d="m 1001.55,965.852 c 0,-7.102 -5.757,-12.864 -12.87,-12.864 -7.098,0 -12.86,5.762 -12.86,12.864 0,7.109 5.762,12.867 12.86,12.867 7.113,0 12.87,-5.758 12.87,-12.867"
         style="fill:#161315;fill-opacity:1;fill-rule:nonzero;stroke:none"
         id="path32" /><path
         d="m 890.516,1239.13 c 0,-7.11 -5.75,-12.87 -12.86,-12.87 -7.101,0 -12.859,5.76 -12.859,12.87 0,7.1 5.758,12.86 12.859,12.86 7.11,0 12.86,-5.76 12.86,-12.86"
         style="fill:#161315;fill-opacity:1;fill-rule:nonzero;stroke:none"
         id="path34" /><path
         d="m 947.219,1298.65 c 0,-7.1 -5.766,-12.86 -12.864,-12.86 -7.109,0 -12.871,5.76 -12.871,12.86 0,7.11 5.762,12.87 12.871,12.87 7.098,0 12.864,-5.76 12.864,-12.87"
         style="fill:#161315;fill-opacity:1;fill-rule:nonzero;stroke:none"
         id="path36" /><path
         d="m 1071.78,1213.82 c 0,-7.11 -5.76,-12.87 -12.86,-12.87 -7.11,0 -12.87,5.76 -12.87,12.87 0,7.1 5.76,12.86 12.87,12.86 7.1,0 12.86,-5.76 12.86,-12.86"
         style="fill:#161315;fill-opacity:1;fill-rule:nonzero;stroke:none"
         id="path38" /><path
         d="m 1026.21,1264.44 c 0,-7.1 -5.75,-12.86 -12.86,-12.86 -7.1,0 -12.86,5.76 -12.86,12.86 0,7.1 5.76,12.86 12.86,12.86 7.11,0 12.86,-5.76 12.86,-12.86"
         style="fill:#161315;fill-opacity:1;fill-rule:nonzero;stroke:none"
         id="path40" /><path
         d="m 1127.68,1240.98 c 0,-7.09 -5.77,-12.85 -12.88,-12.85 -7.1,0 -12.86,5.76 -12.86,12.85 0,7.12 5.76,12.88 12.86,12.88 7.11,0 12.88,-5.76 12.88,-12.88"
         style="fill:#161315;fill-opacity:1;fill-rule:nonzero;stroke:none"
         id="path42" /><path
         d="m 1038.93,856.828 c 0,-7.098 -5.76,-12.867 -12.87,-12.867 -7.1,0 -12.86,5.769 -12.86,12.867 0,7.113 5.76,12.871 12.86,12.871 7.11,0 12.87,-5.758 12.87,-12.871"
         style="fill:#161315;fill-opacity:1;fill-rule:nonzero;stroke:none"
         id="path44" /><path
         d="m 899.844,743.09 c 0,-7.102 -5.762,-12.871 -12.864,-12.871 -7.109,0 -12.871,5.769 -12.871,12.871 0,7.109 5.762,12.871 12.871,12.871 7.102,0 12.864,-5.762 12.864,-12.871"
         style="fill:#161315;fill-opacity:1;fill-rule:nonzero;stroke:none"
         id="path46" /><path
         d="m 978.711,787.25 c 0,-7.109 -5.762,-12.871 -12.871,-12.871 -7.102,0 -12.863,5.762 -12.863,12.871 0,7.102 5.761,12.859 12.863,12.859 7.109,0 12.871,-5.757 12.871,-12.859"
         style="fill:#161315;fill-opacity:1;fill-rule:nonzero;stroke:none"
         id="path48" /><path
         d="m 1122.74,826.031 c 0,-7.101 -5.76,-12.871 -12.86,-12.871 -7.11,0 -12.86,5.77 -12.86,12.871 0,7.098 5.75,12.867 12.86,12.867 7.1,0 12.86,-5.769 12.86,-12.867"
         style="fill:#161315;fill-opacity:1;fill-rule:nonzero;stroke:none"
         id="path50" /><path
         d="m 940.234,930.129 c 0,-7.109 -5.761,-12.859 -12.871,-12.859 -7.097,0 -12.859,5.75 -12.859,12.859 0,7.101 5.762,12.859 12.859,12.859 7.11,0 12.871,-5.758 12.871,-12.859"
         style="fill:#161315;fill-opacity:1;fill-rule:nonzero;stroke:none"
         id="path52" /><path
         d="m 903.66,1101.86 c 0,-7.11 -5.75,-12.88 -12.859,-12.88 -7.11,0 -12.863,5.77 -12.863,12.88 0,7.1 5.753,12.86 12.863,12.86 7.109,0 12.859,-5.76 12.859,-12.86"
         style="fill:#161315;fill-opacity:1;fill-rule:nonzero;stroke:none"
         id="path54" /><path
         d="m 1097.97,1087.68 c 0,-7.11 -5.76,-12.87 -12.87,-12.87 -7.1,0 -12.86,5.76 -12.86,12.87 0,7.11 5.76,12.87 12.86,12.87 7.11,0 12.87,-5.76 12.87,-12.87"
         style="fill:#161315;fill-opacity:1;fill-rule:nonzero;stroke:none"
         id="path56" /><path
         d="m 1141.86,1046.35 c 0,-7.11 -5.76,-12.87 -12.87,-12.87 -7.1,0 -12.86,5.76 -12.86,12.87 0,7.1 5.76,12.86 12.86,12.86 7.11,0 12.87,-5.76 12.87,-12.86"
         style="fill:#161315;fill-opacity:1;fill-rule:nonzero;stroke:none"
         id="path58" /><path
         d="m 973.203,1082.07 c 0,-7.1 -5.762,-12.86 -12.859,-12.86 -7.114,0 -12.871,5.76 -12.871,12.86 0,7.11 5.757,12.87 12.871,12.87 7.097,0 12.859,-5.76 12.859,-12.87"
         style="fill:#161315;fill-opacity:1;fill-rule:nonzero;stroke:none"
         id="path60" /><path
         d="m 883.535,1018 c 0,-7.1 -5.762,-12.86 -12.859,-12.86 -7.113,0 -12.863,5.76 -12.863,12.86 0,7.11 5.75,12.87 12.863,12.87 7.097,0 12.859,-5.76 12.859,-12.87"
         style="fill:#161315;fill-opacity:1;fill-rule:nonzero;stroke:none"
         id="path62" /></g></g></svg>
