<?xml version="1.0" encoding="UTF-8"?>
<svg xmlns="http://www.w3.org/2000/svg" xmlns:xlink="http://www.w3.org/1999/xlink" width="200pt" height="200pt" viewBox="0 0 200 200" version="1.1">
<g id="surface1">
<path style=" stroke:none;fill-rule:nonzero;fill:rgb(73.699951%,81.199646%,62.69989%);fill-opacity:1;" d="M 95.011719 139.796875 C 95.011719 139.796875 94.691406 139.796875 104.609375 139.796875 C 114.53125 139.796875 116.578125 128.796875 116.578125 126.75 C 116.578125 124.703125 116.578125 115.089844 116.578125 108.835938 C 116.578125 102.578125 116.578125 102.578125 116.578125 102.578125 C 114.855469 102.578125 95.011719 102.578125 95.011719 102.578125 C 95.011719 102.578125 75.804688 102.578125 74.082031 102.578125 C 73.445313 102.578125 73.445313 102.578125 73.445313 108.835938 C 73.445313 115.089844 73.445313 124.703125 73.445313 126.75 C 73.445313 128.796875 75.492188 139.796875 85.414063 139.796875 C 95.335938 139.796875 95.011719 139.796875 95.011719 139.796875 "/>
<path style="fill:none;stroke-width:20;stroke-linecap:round;stroke-linejoin:round;stroke:rgb(6.698608%,4.299927%,7.798767%);stroke-opacity:1;stroke-miterlimit:10;" d="M 854.492188 1122.96875 C 854.492188 1122.96875 898.554688 1133.242188 898.554688 1168.515625 C 898.554688 1203.789063 829.492188 1199.375 829.492188 1237.617188 C 829.492188 1275.820313 893.4375 1264.0625 893.4375 1301.5625 " transform="matrix(0.1,0,0,-0.1,0,200)"/>
<path style="fill:none;stroke-width:20;stroke-linecap:round;stroke-linejoin:round;stroke:rgb(6.698608%,4.299927%,7.798767%);stroke-opacity:1;stroke-miterlimit:10;" d="M 940.546875 1122.96875 C 940.546875 1122.96875 984.648438 1133.242188 984.648438 1168.515625 C 984.648438 1203.789063 915.585938 1199.375 915.585938 1237.617188 C 915.585938 1275.820313 979.53125 1264.0625 979.53125 1301.5625 " transform="matrix(0.1,0,0,-0.1,0,200)"/>
<path style="fill:none;stroke-width:20;stroke-linecap:round;stroke-linejoin:round;stroke:rgb(6.698608%,4.299927%,7.798767%);stroke-opacity:1;stroke-miterlimit:10;" d="M 1026.640625 1122.96875 C 1026.640625 1122.96875 1070.742188 1133.242188 1070.742188 1168.515625 C 1070.742188 1203.789063 1001.679688 1199.375 1001.679688 1237.617188 C 1001.679688 1275.820313 1065.625 1264.0625 1065.625 1301.5625 " transform="matrix(0.1,0,0,-0.1,0,200)"/>
<path style="fill:none;stroke-width:20;stroke-linecap:round;stroke-linejoin:round;stroke:rgb(6.698608%,4.299927%,7.798767%);stroke-opacity:1;stroke-miterlimit:10;" d="M 950.117188 602.03125 C 950.117188 602.03125 946.914063 602.03125 1046.09375 602.03125 C 1145.3125 602.03125 1165.78125 712.03125 1165.78125 732.5 C 1165.78125 752.96875 1165.78125 934.140625 1165.78125 996.679688 C 1165.78125 1059.257813 1116.210938 1059.257813 1098.945313 1059.257813 C 1081.679688 1059.257813 950.117188 1059.257813 950.117188 1059.257813 C 950.117188 1059.257813 818.554688 1059.257813 801.289063 1059.257813 C 784.023438 1059.257813 734.453125 1059.257813 734.453125 996.679688 C 734.453125 934.140625 734.453125 752.96875 734.453125 732.5 C 734.453125 712.03125 754.921875 602.03125 854.140625 602.03125 C 953.359375 602.03125 950.117188 602.03125 950.117188 602.03125 " transform="matrix(0.1,0,0,-0.1,0,200)"/>
<path style=" stroke:none;fill-rule:nonzero;fill:rgb(100%,100%,100%);fill-opacity:1;" d="M 84.335938 122.976563 L 88.863281 122.976563 L 88.863281 111.652344 L 84.335938 107.121094 L 84.335938 94.074219 L 84.335938 107.121094 L 79.804688 111.652344 L 79.804688 122.976563 L 84.335938 122.976563 "/>
<path style="fill:none;stroke-width:20;stroke-linecap:round;stroke-linejoin:round;stroke:rgb(6.698608%,4.299927%,7.798767%);stroke-opacity:1;stroke-miterlimit:10;" d="M 843.359375 770.234375 L 888.632813 770.234375 L 888.632813 883.476563 L 843.359375 928.789063 L 843.359375 1059.257813 L 843.359375 928.789063 L 798.046875 883.476563 L 798.046875 770.234375 Z M 843.359375 770.234375 " transform="matrix(0.1,0,0,-0.1,0,200)"/>
<path style="fill:none;stroke-width:20;stroke-linecap:round;stroke-linejoin:round;stroke:rgb(6.698608%,4.299927%,7.798767%);stroke-opacity:1;stroke-miterlimit:10;" d="M 1165.78125 921.210938 C 1165.78125 921.210938 1208.90625 917.96875 1208.90625 844.648438 C 1208.90625 771.328125 1165.78125 762.695313 1165.78125 762.695313 " transform="matrix(0.1,0,0,-0.1,0,200)"/>
<path style="fill:none;stroke-width:20;stroke-linecap:round;stroke-linejoin:round;stroke:rgb(6.698608%,4.299927%,7.798767%);stroke-opacity:1;stroke-miterlimit:10;" d="M 1165.78125 1007.5 C 1165.78125 1007.5 1267.148438 1029.0625 1267.148438 848.945313 C 1267.148438 668.867188 1159.882813 699.21875 1159.882813 699.21875 " transform="matrix(0.1,0,0,-0.1,0,200)"/>
</g>
</svg>
