<?xml version="1.0" encoding="UTF-8"?>
<svg xmlns="http://www.w3.org/2000/svg" xmlns:xlink="http://www.w3.org/1999/xlink" width="200pt" height="200pt" viewBox="0 0 200 200" version="1.1">
<g id="surface1">
<path style="fill:none;stroke-width:20;stroke-linecap:round;stroke-linejoin:round;stroke:rgb(6.698608%,4.299927%,7.798767%);stroke-opacity:1;stroke-miterlimit:10;" d="M 807.421875 1122.96875 C 807.421875 1122.96875 851.523438 1133.242188 851.523438 1168.515625 C 851.523438 1203.789063 782.460938 1199.375 782.460938 1237.617188 C 782.460938 1275.820313 846.40625 1264.0625 846.40625 1301.5625 " transform="matrix(0.1,0,0,-0.1,0,200)"/>
<path style="fill:none;stroke-width:20;stroke-linecap:round;stroke-linejoin:round;stroke:rgb(6.698608%,4.299927%,7.798767%);stroke-opacity:1;stroke-miterlimit:10;" d="M 893.515625 1122.96875 C 893.515625 1122.96875 937.617188 1133.242188 937.617188 1168.515625 C 937.617188 1203.789063 868.554688 1199.375 868.554688 1237.617188 C 868.554688 1275.820313 932.460938 1264.0625 932.460938 1301.5625 " transform="matrix(0.1,0,0,-0.1,0,200)"/>
<path style="fill:none;stroke-width:20;stroke-linecap:round;stroke-linejoin:round;stroke:rgb(6.698608%,4.299927%,7.798767%);stroke-opacity:1;stroke-miterlimit:10;" d="M 979.609375 1122.96875 C 979.609375 1122.96875 1023.710938 1133.242188 1023.710938 1168.515625 C 1023.710938 1203.789063 954.648438 1199.375 954.648438 1237.617188 C 954.648438 1275.820313 1018.554688 1264.0625 1018.554688 1301.5625 " transform="matrix(0.1,0,0,-0.1,0,200)"/>
<path style="fill:none;stroke-width:20;stroke-linecap:round;stroke-linejoin:round;stroke:rgb(6.698608%,4.299927%,7.798767%);stroke-opacity:1;stroke-miterlimit:10;" d="M 903.085938 602.03125 C 903.085938 602.03125 899.84375 602.03125 999.0625 602.03125 C 1098.28125 602.03125 1118.789063 712.03125 1118.789063 732.5 C 1118.789063 752.96875 1118.789063 934.140625 1118.789063 996.679688 C 1118.789063 1059.257813 1069.140625 1059.257813 1051.914063 1059.257813 C 1034.648438 1059.257813 903.085938 1059.257813 903.085938 1059.257813 L 903.046875 1059.257813 C 903.046875 1059.257813 771.523438 1059.257813 754.257813 1059.257813 C 736.992188 1059.257813 687.382813 1059.257813 687.382813 996.679688 C 687.382813 934.140625 687.382813 752.96875 687.382813 732.5 C 687.382813 712.03125 707.890625 602.03125 807.109375 602.03125 C 906.289063 602.03125 903.046875 602.03125 903.046875 602.03125 " transform="matrix(0.1,0,0,-0.1,0,200)"/>
<path style="fill:none;stroke-width:20;stroke-linecap:round;stroke-linejoin:round;stroke:rgb(6.698608%,4.299927%,7.798767%);stroke-opacity:1;stroke-miterlimit:10;" d="M 796.328125 770.234375 L 841.601563 770.234375 L 841.601563 883.476563 L 796.328125 928.789063 L 796.328125 1059.257813 L 796.328125 928.789063 L 751.015625 883.476563 L 751.015625 770.234375 Z M 796.328125 770.234375 " transform="matrix(0.1,0,0,-0.1,0,200)"/>
<path style="fill:none;stroke-width:20;stroke-linecap:round;stroke-linejoin:round;stroke:rgb(6.698608%,4.299927%,7.798767%);stroke-opacity:1;stroke-miterlimit:10;" d="M 1118.789063 921.210938 C 1118.789063 921.210938 1161.875 917.96875 1161.875 844.648438 C 1161.875 771.328125 1118.789063 762.695313 1118.789063 762.695313 " transform="matrix(0.1,0,0,-0.1,0,200)"/>
<path style="fill:none;stroke-width:20;stroke-linecap:round;stroke-linejoin:round;stroke:rgb(6.698608%,4.299927%,7.798767%);stroke-opacity:1;stroke-miterlimit:10;" d="M 1118.789063 1007.5 C 1118.789063 1007.5 1220.117188 1029.0625 1220.117188 848.945313 C 1220.117188 668.867188 1112.8125 699.21875 1112.8125 699.21875 " transform="matrix(0.1,0,0,-0.1,0,200)"/>
</g>
</svg>
