<?xml version="1.0" encoding="UTF-8" standalone="no"?>
<svg
   xmlns:dc="http://purl.org/dc/elements/1.1/"
   xmlns:cc="http://creativecommons.org/ns#"
   xmlns:rdf="http://www.w3.org/1999/02/22-rdf-syntax-ns#"
   xmlns:svg="http://www.w3.org/2000/svg"
   xmlns="http://www.w3.org/2000/svg"
   xmlns:sodipodi="http://sodipodi.sourceforge.net/DTD/sodipodi-0.dtd"
   xmlns:inkscape="http://www.inkscape.org/namespaces/inkscape"
   version="1.1"
   id="svg2"
   xml:space="preserve"
   width="266.66666"
   height="266.66666"
   viewBox="0 0 266.66666 266.66666"
   sodipodi:docname="Coffee1.eps"><metadata
     id="metadata8"><rdf:RDF><cc:Work
         rdf:about=""><dc:format>image/svg+xml</dc:format><dc:type
           rdf:resource="http://purl.org/dc/dcmitype/StillImage" /></cc:Work></rdf:RDF></metadata><defs
     id="defs6" /><sodipodi:namedview
     pagecolor="#ffffff"
     bordercolor="#666666"
     borderopacity="1"
     objecttolerance="10"
     gridtolerance="10"
     guidetolerance="10"
     inkscape:pageopacity="0"
     inkscape:pageshadow="2"
     inkscape:window-width="640"
     inkscape:window-height="480"
     id="namedview4" /><g
     id="g10"
     inkscape:groupmode="layer"
     inkscape:label="ink_ext_XXXXXX"
     transform="matrix(1.3333333,0,0,-1.3333333,0,266.66667)"><g
       id="g12"
       transform="scale(0.1)"><path
         d="m 1157.93,1055.24 c 0,0 53.14,15.65 48.77,-21.89 -4.39,-37.53 -76.26,-60.08 -76.26,-60.08"
         style="fill:none;stroke:#161315;stroke-width:20;stroke-linecap:round;stroke-linejoin:round;stroke-miterlimit:10;stroke-dasharray:none;stroke-opacity:1"
         id="path14" /><path
         d="m 1162.87,1106.56 c 0,0 84.49,35.02 93.88,-60.69 9.37,-95.722 -163.88,-129.538 -163.88,-129.538"
         style="fill:none;stroke:#161315;stroke-width:20;stroke-linecap:round;stroke-linejoin:round;stroke-miterlimit:10;stroke-dasharray:none;stroke-opacity:1"
         id="path16" /><path
         d="m 921.938,900.238 c 0,0 141.802,24.41 241.012,-30.5 99.2,-54.918 -65.04,-76.879 -65.04,-76.879 H 921.938 745.969 c 0,0 -164.235,21.961 -65.035,76.879 99.199,54.91 241.004,30.5 241.004,30.5 z"
         style="fill:none;stroke:#161315;stroke-width:20;stroke-linecap:round;stroke-linejoin:round;stroke-miterlimit:10;stroke-dasharray:none;stroke-opacity:1"
         id="path18" /><path
         d="m 921.938,841.609 c 189.962,0 241.012,185.711 241.012,260.851 0,68.42 -46.79,59.54 -68.06,59.54 -21.26,0 -172.952,0 -172.952,0 0,0 -151.696,0 -172.958,0 -21.265,0 -68.046,8.88 -68.046,-59.54 0,-75.14 51.035,-260.851 241.004,-260.851"
         style="fill:#ffffff;fill-opacity:1;fill-rule:nonzero;stroke:none"
         id="path20" /><path
         d="m 921.938,841.609 c 189.962,0 241.012,185.711 241.012,260.851 0,68.42 -46.79,59.54 -68.06,59.54 -21.26,0 -172.952,0 -172.952,0 0,0 -151.696,0 -172.958,0 -21.265,0 -68.046,8.88 -68.046,-59.54 0,-75.14 51.035,-260.851 241.004,-260.851 z"
         style="fill:none;stroke:#161315;stroke-width:20;stroke-linecap:round;stroke-linejoin:round;stroke-miterlimit:10;stroke-dasharray:none;stroke-opacity:1"
         id="path22" /><path
         d="m 1088.18,792.859 c 0,-53.16 -166.242,-43.281 -166.242,-43.281 0,0 -166.247,-9.879 -166.247,43.281"
         style="fill:none;stroke:#161315;stroke-width:20;stroke-linecap:round;stroke-linejoin:round;stroke-miterlimit:10;stroke-dasharray:none;stroke-opacity:1"
         id="path24" /><path
         d="m 829.199,1222.82 c 0,0 44.098,10.29 44.098,45.57 0,35.27 -69.082,30.86 -69.082,69.08 0,38.21 63.933,26.46 63.933,63.94"
         style="fill:none;stroke:#161315;stroke-width:20;stroke-linecap:round;stroke-linejoin:round;stroke-miterlimit:10;stroke-dasharray:none;stroke-opacity:1"
         id="path26" /><path
         d="m 915.293,1222.82 c 0,0 44.094,10.29 44.094,45.57 0,35.27 -69.082,30.86 -69.082,69.08 0,38.21 63.937,26.46 63.937,63.94"
         style="fill:none;stroke:#161315;stroke-width:20;stroke-linecap:round;stroke-linejoin:round;stroke-miterlimit:10;stroke-dasharray:none;stroke-opacity:1"
         id="path28" /><path
         d="m 1001.38,1222.82 c 0,0 44.1,10.29 44.1,45.57 0,35.27 -69.085,30.86 -69.085,69.08 0,38.21 63.935,26.46 63.935,63.94"
         style="fill:none;stroke:#161315;stroke-width:20;stroke-linecap:round;stroke-linejoin:round;stroke-miterlimit:10;stroke-dasharray:none;stroke-opacity:1"
         id="path30" /></g></g></svg>
