<?xml version="1.0" encoding="UTF-8" standalone="no"?>
<svg
   xmlns:dc="http://purl.org/dc/elements/1.1/"
   xmlns:cc="http://creativecommons.org/ns#"
   xmlns:rdf="http://www.w3.org/1999/02/22-rdf-syntax-ns#"
   xmlns:svg="http://www.w3.org/2000/svg"
   xmlns="http://www.w3.org/2000/svg"
   xmlns:sodipodi="http://sodipodi.sourceforge.net/DTD/sodipodi-0.dtd"
   xmlns:inkscape="http://www.inkscape.org/namespaces/inkscape"
   version="1.1"
   id="svg2"
   xml:space="preserve"
   width="266.66666"
   height="266.66666"
   viewBox="0 0 266.66666 266.66666"
   sodipodi:docname="Lemonade2.eps"><metadata
     id="metadata8"><rdf:RDF><cc:Work
         rdf:about=""><dc:format>image/svg+xml</dc:format><dc:type
           rdf:resource="http://purl.org/dc/dcmitype/StillImage" /></cc:Work></rdf:RDF></metadata><defs
     id="defs6" /><sodipodi:namedview
     pagecolor="#ffffff"
     bordercolor="#666666"
     borderopacity="1"
     objecttolerance="10"
     gridtolerance="10"
     guidetolerance="10"
     inkscape:pageopacity="0"
     inkscape:pageshadow="2"
     inkscape:window-width="640"
     inkscape:window-height="480"
     id="namedview4" /><g
     id="g10"
     inkscape:groupmode="layer"
     inkscape:label="ink_ext_XXXXXX"
     transform="matrix(1.3333333,0,0,-1.3333333,0,266.66667)"><g
       id="g12"
       transform="scale(0.1)"><path
         d="M 992.559,1127.15 H 787.938 c 0,0 42.511,-352.111 44.484,-362.959 1.973,-10.839 4.93,-102.57 59.172,-102.57 54.246,0 91.726,0 91.726,0 h 5.418 c 0,0 37.482,0 91.732,0 54.24,0 57.2,91.731 59.17,102.57 1.97,10.848 47.31,362.959 47.31,362.959 H 979.504"
         style="fill:#3d261d;fill-opacity:1;fill-rule:nonzero;stroke:none"
         id="path14" /><path
         d="m 1085.55,1227.04 c 0,0 54.35,150.67 63.09,174.22 12.66,34.11 31.57,58.08 74.6,32.49 38.5,-22.88 140.79,-89.04 140.79,-89.04 l -21.23,-32.89 c 0,0 -129.18,83.42 -136.4,87.04 -7.22,3.6 -15.64,10.83 -22.86,-9.63 -7.22,-20.46 -57.08,-162.19 -57.08,-162.19 z"
         style="fill:none;stroke:#161315;stroke-width:20;stroke-linecap:round;stroke-linejoin:round;stroke-miterlimit:10;stroke-dasharray:none;stroke-opacity:1"
         id="path16" /><path
         d="M 993.973,1223.36 H 778.02 c 0,0 53.843,-444.579 55.82,-455.43 1.969,-10.852 4.93,-102.571 59.168,-102.571 54.25,0 91.726,0 91.726,0 h 5.422 c 0,0 37.484,0 91.724,0 54.24,0 57.2,91.719 59.17,102.571 1.98,10.851 55.82,455.43 55.82,455.43 H 980.918"
         style="fill:none;stroke:#161315;stroke-width:20;stroke-linecap:round;stroke-linejoin:round;stroke-miterlimit:10;stroke-dasharray:none;stroke-opacity:1"
         id="path18" /></g></g></svg>
