<?xml version="1.0" encoding="UTF-8" standalone="no"?>
<svg
   xmlns:dc="http://purl.org/dc/elements/1.1/"
   xmlns:cc="http://creativecommons.org/ns#"
   xmlns:rdf="http://www.w3.org/1999/02/22-rdf-syntax-ns#"
   xmlns:svg="http://www.w3.org/2000/svg"
   xmlns="http://www.w3.org/2000/svg"
   xmlns:sodipodi="http://sodipodi.sourceforge.net/DTD/sodipodi-0.dtd"
   xmlns:inkscape="http://www.inkscape.org/namespaces/inkscape"
   version="1.1"
   id="svg2"
   xml:space="preserve"
   width="266.66666"
   height="266.66666"
   viewBox="0 0 266.66666 266.66666"
   sodipodi:docname="Lightdrinks1.eps"><metadata
     id="metadata8"><rdf:RDF><cc:Work
         rdf:about=""><dc:format>image/svg+xml</dc:format><dc:type
           rdf:resource="http://purl.org/dc/dcmitype/StillImage" /></cc:Work></rdf:RDF></metadata><defs
     id="defs6" /><sodipodi:namedview
     pagecolor="#ffffff"
     bordercolor="#666666"
     borderopacity="1"
     objecttolerance="10"
     gridtolerance="10"
     guidetolerance="10"
     inkscape:pageopacity="0"
     inkscape:pageshadow="2"
     inkscape:window-width="640"
     inkscape:window-height="480"
     id="namedview4" /><g
     id="g10"
     inkscape:groupmode="layer"
     inkscape:label="ink_ext_XXXXXX"
     transform="matrix(1.3333333,0,0,-1.3333333,0,266.66667)"><g
       id="g12"
       transform="scale(0.1)"><path
         d="m 1006.42,608.602 c 0,0 -32.815,0 43.76,0 76.57,0 77.94,68.367 77.94,68.367 0,0 0,190.07 0,258.441 0,68.37 -36.92,132.27 -50.59,151.41 -13.68,19.14 -16.42,90.61 -16.42,90.61 v 64.27 h -54.69 -13.979 -54.699 v -64.27 c 0,0 -2.73,-71.47 -16.402,-90.61 -13.68,-19.14 -50.598,-83.04 -50.598,-151.41 0,-68.371 0,-258.441 0,-258.441 0,0 1.367,-68.367 77.946,-68.367 76.562,0 43.753,0 43.753,0"
         style="fill:none;stroke:#161315;stroke-width:20;stroke-linecap:round;stroke-linejoin:round;stroke-miterlimit:10;stroke-dasharray:none;stroke-opacity:1"
         id="path14" /><path
         d="m 989.895,1241.7 c 0,0 48.995,0 57.865,0 8.88,0 20.72,2.96 20.72,45.87 0,42.9 -22.2,44.37 -71.023,44.37 h 0.68 c -48.824,0 -71.012,-1.47 -71.012,-44.37 0,-42.91 11.836,-45.87 20.707,-45.87 8.879,0 57.868,0 57.868,0"
         style="fill:none;stroke:#161315;stroke-width:20;stroke-linecap:round;stroke-linejoin:round;stroke-miterlimit:10;stroke-dasharray:none;stroke-opacity:1"
         id="path16" /><path
         d="m 1095.63,811.961 c 0,-71.59 -44.12,-129.641 -98.525,-129.641 -54.41,0 -98.519,58.051 -98.519,129.641 0,71.59 44.109,129.629 98.519,129.629 54.405,0 98.525,-58.039 98.525,-129.629 z"
         style="fill:none;stroke:#161315;stroke-width:20;stroke-linecap:round;stroke-linejoin:round;stroke-miterlimit:10;stroke-dasharray:none;stroke-opacity:1"
         id="path18" /><path
         d="m 1019.01,839.32 c 0,-8.398 -6.81,-15.211 -15.21,-15.211 -8.405,0 -15.214,6.813 -15.214,15.211 0,8.399 6.809,15.211 15.214,15.211 8.4,0 15.21,-6.812 15.21,-15.211 z"
         style="fill:none;stroke:#161315;stroke-width:15;stroke-linecap:round;stroke-linejoin:round;stroke-miterlimit:10;stroke-dasharray:none;stroke-opacity:1"
         id="path20" /><path
         d="m 1056.54,784.602 c 0,-8.403 -6.81,-15.223 -15.21,-15.223 -8.4,0 -15.22,6.82 -15.22,15.223 0,8.41 6.82,15.207 15.22,15.207 8.4,0 15.21,-6.797 15.21,-15.207 z"
         style="fill:none;stroke:#161315;stroke-width:15;stroke-linecap:round;stroke-linejoin:round;stroke-miterlimit:10;stroke-dasharray:none;stroke-opacity:1"
         id="path22" /><path
         d="m 1042.9,851.82 -41.16,-79.64"
         style="fill:none;stroke:#161315;stroke-width:15;stroke-linecap:round;stroke-linejoin:round;stroke-miterlimit:10;stroke-dasharray:none;stroke-opacity:1"
         id="path24" /><path
         d="M 979.234,802.648 H 934.055"
         style="fill:none;stroke:#161315;stroke-width:15;stroke-linecap:round;stroke-linejoin:round;stroke-miterlimit:10;stroke-dasharray:none;stroke-opacity:1"
         id="path26" /></g></g></svg>
